<?xml version="1.0" encoding="UTF-8" standalone="no"?>
<svg
   xmlns:dc="http://purl.org/dc/elements/1.1/"
   xmlns:cc="http://creativecommons.org/ns#"
   xmlns:rdf="http://www.w3.org/1999/02/22-rdf-syntax-ns#"
   xmlns:svg="http://www.w3.org/2000/svg"
   xmlns="http://www.w3.org/2000/svg"
   xmlns:xlink="http://www.w3.org/1999/xlink"
   xmlns:sodipodi="http://sodipodi.sourceforge.net/DTD/sodipodi-0.dtd"
   xmlns:inkscape="http://www.inkscape.org/namespaces/inkscape"
   id="svg4161"
   viewBox="0 0 450 1000"
   version="1.1"
   inkscape:version="0.91 r13725"
   sodipodi:docname="semaphore.svg"
   inkscape:export-filename="/home/santi/Dropbox/Trabajo/Semaphore/app/src/main/res/drawable/semaphore.png"
   inkscape:export-xdpi="72"
   inkscape:export-ydpi="72">
  <sodipodi:namedview
     pagecolor="#ffffff"
     bordercolor="#666666"
     borderopacity="1"
     objecttolerance="10"
     gridtolerance="10"
     guidetolerance="10"
     inkscape:pageopacity="0"
     inkscape:pageshadow="2"
     inkscape:window-width="1280"
     inkscape:window-height="962"
     id="namedview4254"
     showgrid="false"
     inkscape:zoom="0.731"
     inkscape:cx="227.06836"
     inkscape:cy="488.45354"
     inkscape:window-x="0"
     inkscape:window-y="25"
     inkscape:window-maximized="1"
     inkscape:current-layer="svg4161" />
  <defs
     id="defs4163">
    <linearGradient
       id="shadow100to0">
      <stop
         id="stop3425"
         offset="0" />
      <stop
         id="stop3426"
         stop-opacity="0"
         offset="1" />
    </linearGradient>
    <linearGradient
       id="light90to0">
      <stop
         id="stop1890"
         stop-color="#fff"
         stop-opacity=".90196"
         offset="0" />
      <stop
         id="stop1892"
         stop-color="#fff"
         stop-opacity="0"
         offset="1" />
    </linearGradient>
    <linearGradient
       id="linearGradient3071"
       x1="-35.432"
       xlink:href="#shadow100to0"
       gradientUnits="userSpaceOnUse"
       y1="1061.3"
       gradientTransform="matrix(0.73351128,0,0,0.74030071,87.470258,701.75026)"
       x2="345.05"
       y2="1061.3" />
    <radialGradient
       id="radialGradient3073"
       fx="124.57"
       xlink:href="#light90to0"
       gradientUnits="userSpaceOnUse"
       cy="391.47"
       cx="123.89"
       gradientTransform="matrix(0.75542383,0.2385619,-0.11802158,0.3737381,181.86329,718.19932)"
       r="166.47" />
    <linearGradient
       id="linearGradient3075"
       x1="183.38"
       xlink:href="#light90to0"
       gradientUnits="userSpaceOnUse"
       x2="183.38"
       y1="18.164"
       y2="346.1"
       gradientTransform="matrix(0.64412065,0,0,0.4646236,106.47725,353.49875)" />
    <linearGradient
       id="linearGradient3077"
       x1="-35.432"
       xlink:href="#shadow100to0"
       gradientUnits="userSpaceOnUse"
       y1="1061.3"
       gradientTransform="matrix(0.73352195,0,0,0.74032025,87.4704,20.602965)"
       x2="345.05"
       y2="1061.3" />
    <radialGradient
       id="radialGradient3079"
       fx="124.57"
       xlink:href="#light90to0"
       gradientUnits="userSpaceOnUse"
       cy="391.47"
       cx="123.89"
       gradientTransform="matrix(0.75545195,0.23855819,-0.1180236,0.37372375,181.86443,37.05412)"
       r="166.47" />
    <linearGradient
       id="linearGradient3083"
       x1="-35.432"
       xlink:href="#shadow100to0"
       gradientUnits="userSpaceOnUse"
       y1="1061.3"
       gradientTransform="matrix(0.73352195,0,0,0.74032025,87.47125,361.17425)"
       x2="345.05"
       y2="1061.3" />
    <radialGradient
       id="radialGradient3085"
       fx="124.57"
       xlink:href="#light90to0"
       gradientUnits="userSpaceOnUse"
       cy="391.47"
       cx="123.89"
       gradientTransform="matrix(0.75545195,0.23855819,-0.1180236,0.37372375,181.8799,377.62175)"
       r="166.47" />
    <linearGradient
       id="linearGradient2919"
       y2="383.41"
       gradientUnits="userSpaceOnUse"
       y1="385.7"
       x2="450"
       x1="13.699"
       gradientTransform="translate(0,-52.362)">
      <stop
         id="stop2915"
         offset="0" />
      <stop
         id="stop2921"
         stop-color="#4d4d4d"
         offset=".48673" />
      <stop
         id="stop2917"
         offset="1" />
    </linearGradient>
    <linearGradient
       inkscape:collect="always"
       xlink:href="#light90to0"
       id="linearGradient4256"
       gradientUnits="userSpaceOnUse"
       x1="183.38"
       y1="18.164"
       x2="183.38"
       y2="346.1"
       gradientTransform="matrix(0.64410382,0,0,0.46462326,106.474,694.0862)" />
    <linearGradient
       inkscape:collect="always"
       xlink:href="#light90to0"
       id="linearGradient4258"
       gradientUnits="userSpaceOnUse"
       x1="183.38"
       y1="18.164"
       x2="183.38"
       y2="346.1"
       gradientTransform="matrix(0.64412065,0,0,0.4646236,106.47275,12.93843)" />
  </defs>
  <rect
     style="fill:url(#linearGradient2919)"
     x="-3.4937e-06"
     y="-4.8828127e-07"
     width="450"
     height="1000"
     ry="104.16"
     rx="103.94"
     id="rect4016" />
  <path
     inkscape:connector-curvature="0"
     style="fill:#ffffff;fill-rule:evenodd;stroke:url(#linearGradient3071);stroke-width:7.36892653"
     d="m 224.9948,703.43963 c -74.99923,0 -135.881766,61.42703 -135.881766,137.11985 0,75.6968 60.877216,137.14646 135.881766,137.14646 74.99923,0 135.88177,-61.44966 135.88177,-137.14646 0,-75.69681 -60.87721,-137.11985 -135.88177,-137.11985 z"
     id="path8494" />
  <path
     style="fill:#001400;fill-rule:evenodd;stroke:#001400;stroke-width:7.36892653;fill-opacity:1;stroke-opacity:1"
     inkscape:connector-curvature="0"
     d="m 224.9948,703.43963 c -74.99923,0 -135.881766,61.42703 -135.881766,137.11985 0,75.6968 60.877216,137.14646 135.881766,137.14646 74.99923,0 135.88177,-61.44966 135.88177,-137.14646 0,-75.69681 -60.87721,-137.11985 -135.88177,-137.11985 z"
     id="path8495" />
  <path
     inkscape:connector-curvature="0"
     style="fill:url(#radialGradient3073);fill-rule:evenodd"
     d="m 104.89779,863.52638 c 34.29993,145.82632 213.04163,141.64612 244.00676,-0.9585 -42.8666,119.68032 -198.57084,119.4407 -244.00676,0.9585 z"
     id="path8498" />
  <path
     inkscape:connector-curvature="0"
     style="fill:url(#linearGradient4256);fill-rule:evenodd"
     d="m 330.42246,780.35745 c 0,41.89322 -47.08013,75.85439 -105.15639,75.85439 -58.07627,0 -105.15639,-33.96117 -105.15639,-75.85439 0,-41.89322 47.08012,-75.8544 105.15639,-75.8544 58.07626,0 105.15639,33.96118 105.15639,75.8544 z"
     id="path8497" />
  <path
     id="path3934"
     d="m 224.99708,22.291575 c -75.0006,0 -135.878275,61.42593 -135.878275,137.124635 0,75.69871 60.877675,137.14656 135.878275,137.14656 75.0006,0 135.87828,-61.45151 135.87828,-137.14656 0,-75.698705 -60.87767,-137.124635 -135.87828,-137.124635 z"
     style="fill:#ffffff;fill-rule:evenodd;stroke:url(#linearGradient3077);stroke-width:7.3692112"
     inkscape:connector-curvature="0" />
  <path
     id="path3936"
     d="m 224.99708,22.291575 c -75.0006,0 -135.878275,61.42593 -135.878275,137.124635 0,75.69871 60.877675,137.14656 135.878275,137.14656 75.0006,0 135.87828,-61.45151 135.87828,-137.14656 0,-75.698705 -60.87767,-137.124635 -135.87828,-137.124635 z"
     inkscape:connector-curvature="0"
     style="fill:#140000;fill-rule:evenodd;stroke:#140000;stroke-width:7.3692112;fill-opacity:1;stroke-opacity:1" />
  <path
     id="path3938"
     d="M 104.89744,182.38057 C 139.19961,328.1968 317.94373,324.0301 348.91255,181.42662 306.04671,301.11325 150.3364,300.8574 104.89744,182.38057 Z"
     style="fill:url(#radialGradient3079);fill-rule:evenodd"
     inkscape:connector-curvature="0" />
  <path
     id="path3940"
     d="m 330.42706,99.20974 c 0,41.89325 -47.08136,75.85445 -105.15914,75.85445 -58.07778,0 -105.15914,-33.9612 -105.15914,-75.85445 0,-41.893251 47.08136,-75.854449 105.15914,-75.854449 58.07778,0 105.15914,33.961198 105.15914,75.854449 z"
     style="fill:url(#linearGradient4258);fill-rule:evenodd"
     inkscape:connector-curvature="0" />
  <path
     id="path3952"
     d="m 225.0089,362.85555 c -75.0006,0 -135.87828,61.42593 -135.87828,137.12464 0,75.6987 60.87768,137.14656 135.87828,137.14656 75.0006,0 135.87828,-61.45151 135.87828,-137.14656 0,-75.69871 -60.87768,-137.12464 -135.87828,-137.12464 z"
     style="fill:#ffffff;fill-rule:evenodd;stroke:url(#linearGradient3083);stroke-width:7.3692112"
     inkscape:connector-curvature="0" />
  <path
     id="path3954"
     d="m 225.0089,362.85555 c -75.0006,0 -135.87828,61.42593 -135.87828,137.12464 0,75.6987 60.87768,137.14656 135.87828,137.14656 75.0006,0 135.87828,-61.45151 135.87828,-137.14656 0,-75.69871 -60.87768,-137.12464 -135.87828,-137.12464 z"
     inkscape:connector-curvature="0"
     style="fill:#141000;fill-rule:evenodd;stroke:#141000;stroke-width:7.3692112;stroke-opacity:1;fill-opacity:1" />
  <path
     id="path3956"
     d="m 104.9056,522.94455 c 34.30071,145.82719 213.0463,141.64221 244.01511,-0.95381 -42.86584,119.67567 -198.5725,119.43809 -244.01511,0.95381 z"
     style="fill:url(#radialGradient3085);fill-rule:evenodd"
     inkscape:connector-curvature="0" />
  <path
     id="path3958"
     d="m 330.43156,439.77006 c 0,41.89325 -47.08136,75.85445 -105.15914,75.85445 -58.07778,0 -105.15914,-33.9612 -105.15914,-75.85445 0,-41.89325 47.08136,-75.85445 105.15914,-75.85445 58.07778,0 105.15914,33.9612 105.15914,75.85445 z"
     style="fill:url(#linearGradient3075);fill-rule:evenodd"
     inkscape:connector-curvature="0" />
  <metadata
     id="metadata4252">
    <rdf:RDF>
      <cc:Work>
        <dc:format>image/svg+xml</dc:format>
        <dc:type
           rdf:resource="http://purl.org/dc/dcmitype/StillImage" />
        <cc:license
           rdf:resource="http://creativecommons.org/publicdomain/zero/1.0/" />
        <dc:publisher>
          <cc:Agent
             rdf:about="http://openclipart.org/">
            <dc:title>Openclipart</dc:title>
          </cc:Agent>
        </dc:publisher>
        <dc:title></dc:title>
        <dc:date>2010-06-07T05:12:10</dc:date>
        <dc:description>Semaphore</dc:description>
        <dc:source>https://openclipart.org/detail/64801/semaphore---semáforo-by-leandrosciola</dc:source>
        <dc:creator>
          <cc:Agent>
            <dc:title>leandrosciola</dc:title>
          </cc:Agent>
        </dc:creator>
        <dc:subject>
          <rdf:Bag>
            <rdf:li>Farol</rdf:li>
            <rdf:li>Semaphore</rdf:li>
            <rdf:li>Semáforo</rdf:li>
            <rdf:li>Sinaleiro</rdf:li>
          </rdf:Bag>
        </dc:subject>
      </cc:Work>
      <cc:License
         rdf:about="http://creativecommons.org/publicdomain/zero/1.0/">
        <cc:permits
           rdf:resource="http://creativecommons.org/ns#Reproduction" />
        <cc:permits
           rdf:resource="http://creativecommons.org/ns#Distribution" />
        <cc:permits
           rdf:resource="http://creativecommons.org/ns#DerivativeWorks" />
      </cc:License>
    </rdf:RDF>
  </metadata>
</svg>
